HIERARCHY
ROOT Hips
{
     OFFSET 20.88380 94.99020 -15.24440
     CHANNELS 6 Xposition Yposition Zposition Zrotation Xrotation Yrotation
     JOINT Spine
     {
          OFFSET 0.00000 11.89050 -0.00000
          CHANNELS 3 Zrotation Xrotation Yrotation
          JOINT Spine1
          {
               OFFSET 0.00000 25.65740 0.12766
               CHANNELS 3 Zrotation Xrotation Yrotation
               JOINT HEad
               {
                    OFFSET -0.00000 8.73416 0.01134
                    CHANNELS 3 Zrotation Xrotation Yrotation
                    End Site
                    {
                         OFFSET -0.29000 12.77420 2.51395
                    }
               }
               JOINT LeftShoulder1
               {
                    OFFSET 8.99000 -0.36225 -0.22000
                    CHANNELS 3 Zrotation Xrotation Yrotation
                    JOINT LeftArm
                    {
                         OFFSET 10.28270 -0.00338 0.32212
                         CHANNELS 3 Zrotation Xrotation Yrotation
                         JOINT LeftForeArm
                         {
                              OFFSET 32.76690 0.09914 -1.42434
                              CHANNELS 3 Zrotation Xrotation Yrotation
                              JOINT LeftHand
                              {
                                   OFFSET 27.56430 0.08536 1.02216
                                   CHANNELS 3 Zrotation Xrotation Yrotation
                                   End Site
                                   {
                                        OFFSET 16.74430 -0.60000 1.50291
                                   }
                              }
                         }
                    }
               }
               JOINT RightShoulder
               {
                    OFFSET -8.99000 -0.36225 -0.22000
                    CHANNELS 3 Zrotation Xrotation Yrotation
                    JOINT RightArm
                    {
                         OFFSET -10.28270 -0.00338 0.32212
                         CHANNELS 3 Zrotation Xrotation Yrotation
                         JOINT RightForeArm
                         {
                              OFFSET -32.89710 0.09914 -1.42434
                              CHANNELS 3 Zrotation Xrotation Yrotation
                              JOINT RightHand
                              {
                                   OFFSET -27.49210 0.08536 1.02216
                                   CHANNELS 3 Zrotation Xrotation Yrotation
                                   End Site
                                   {
                                        OFFSET -16.63120 -0.60000 1.50291
                                   }
                              }
                         }
                    }
               }
          }
     }
     JOINT LeftUpLeg
     {
          OFFSET 8.94580 -8.66707 0.10165
          CHANNELS 3 Zrotation Xrotation Yrotation
          JOINT LeftLeg
          {
               OFFSET -0.00000 -44.42270 1.37270
               CHANNELS 3 Zrotation Xrotation Yrotation
               JOINT LeftFoot
               {
                    OFFSET -0.25355 -42.09240 -1.46059
                    CHANNELS 3 Zrotation Xrotation Yrotation
                    JOINT LeftToes
                    {
                         OFFSET -0.04000 -4.41509 8.49910
                         CHANNELS 3 Zrotation Xrotation Yrotation
                         End Site
                         {
                              OFFSET 0.08000 -0.04745 9.77979
                         }
                    }
               }
          }
     }
     JOINT RightUpLeg
     {
          OFFSET -8.94580 -8.66707 0.10165
          CHANNELS 3 Zrotation Xrotation Yrotation
          JOINT RightLeg
          {
               OFFSET 0.00000 -44.42270 1.37270
               CHANNELS 3 Zrotation Xrotation Yrotation
               JOINT RightFoot
               {
                    OFFSET 0.25355 -42.09240 -1.46059
                    CHANNELS 3 Zrotation Xrotation Yrotation
                    JOINT RightToes
                    {
                         OFFSET 0.04000 -4.41509 8.49910
                         CHANNELS 3 Zrotation Xrotation Yrotation
                         End Site
                         {
                              OFFSET -0.08000 -0.13745 9.77979
                         }
                    }
               }
          }
     }
}
MOTION
Frames: 6
Frame Time: 0.01667
20.88380 94.99020 -15.24440 -7.64909 -10.74110 -33.18670 -2.31908 10.71790 0.22325 -0.51132 21.16440 0.01752 -0.15484 -11.62900 13.74320 -0.00000 0.00000 -0.00000 -148.68600 -58.06960 -118.84500 -52.66580 66.57300 -67.93360 11.80980 8.84559 -6.62658 12.49110 1.17316 4.92658 94.43010 -0.36038 82.34660 22.26600 33.74320 90.12720 19.94790 12.13260 8.09381 20.46510 -4.19449 -11.02870 -24.64370 9.33516 63.42970 -3.42381 11.40670 0.48330 5.17386 -21.44380 -59.34620 -25.06830 11.84980 13.12970 38.79080 2.12312 -35.02450 -34.69070 -0.19755 2.21625 6.43968 -40.07920 12.63300 
20.73820 94.97160 -15.26410 -7.46228 -10.77770 -32.83920 -2.41995 10.72070 0.27360 -0.69598 21.16200 0.14341 -0.52161 -11.59270 13.62600 -0.00000 0.00000 -0.00000 -148.30099 -57.81270 -118.68200 -53.32160 66.38100 -67.22060 11.74230 8.84119 -6.73946 11.79300 1.10443 4.74533 95.45850 0.36040 82.96010 22.32180 33.70000 89.94920 19.57400 12.11760 8.24095 20.61590 -4.67187 -11.84420 -25.35930 9.42105 64.25730 -3.98886 11.19620 0.57097 5.62598 -20.05210 -58.98230 -25.13160 11.91060 13.05830 38.86290 2.18445 -35.18350 -34.68800 -0.46048 2.13242 6.41999 -40.04760 12.58190 
20.57320 94.93970 -15.33070 -7.20431 -10.81680 -32.31810 -2.60215 10.71880 0.33529 -0.95948 21.14030 0.29136 -0.85034 -11.45100 13.20360 -0.00000 0.00000 -0.00000 -147.63800 -57.48160 -118.26500 -53.36470 66.21860 -67.06210 11.70000 8.82829 -6.91668 11.24950 1.04208 4.53101 96.38760 1.10867 83.57690 22.41120 33.65920 89.85100 19.19150 12.11460 8.46759 20.74920 -5.37088 -12.66240 -26.18080 9.56682 65.30120 -4.44287 10.99110 0.63877 6.06213 -18.63450 -58.34170 -25.22000 11.94550 12.92400 38.99230 2.27536 -35.50810 -34.76200 -0.66597 2.07202 6.48245 -40.27240 12.62430 
20.38750 94.89860 -15.44540 -6.86357 -10.84310 -31.58390 -2.88971 10.71810 0.39170 -1.30255 21.10480 0.42303 -1.23375 -11.08800 12.43030 -0.00000 0.00000 -0.00000 -146.96100 -57.07990 -117.80700 -52.82780 66.18110 -67.45630 11.72750 8.80657 -7.11463 10.83390 1.00206 4.41185 97.22210 1.79276 84.19150 22.47860 33.64430 89.87030 18.85950 12.12850 8.76853 20.79540 -6.27664 -13.15790 -26.89970 9.82188 66.41050 -4.66458 10.91720 0.67220 6.32443 -17.69990 -57.62560 -25.32140 11.94850 12.70050 39.17720 2.39899 -36.01550 -34.89900 -0.84343 2.02443 6.61535 -40.72920 12.73030 
20.18150 94.84390 -15.59000 -6.45517 -10.84420 -30.64670 -3.24340 10.72110 0.42399 -1.72121 21.06180 0.51981 -1.62696 -10.59390 11.42340 -0.00000 0.00000 -0.00000 -146.47000 -56.65420 -117.46400 -52.20280 66.25930 -67.96590 11.85660 8.77398 -7.31727 10.46610 0.98721 4.45201 97.99500 2.41396 84.75410 22.43440 33.67530 90.02700 18.56510 12.15610 9.13381 20.71870 -7.31410 -13.17170 -27.35150 10.14870 67.46080 -4.61026 11.00830 0.66651 6.30708 -17.67710 -57.07680 -25.41960 11.91900 12.41920 39.40930 2.55379 -36.70930 -35.04830 -1.04245 1.97020 6.78917 -41.31670 12.86890 
19.95900 94.76220 -15.73190 -6.03923 -10.80970 -29.55900 -3.56435 10.72430 0.42857 -2.19969 21.01360 0.61224 -1.89119 -10.15810 10.36000 -0.00000 0.00000 -0.00000 -146.26100 -56.25000 -117.26500 -52.21630 66.41670 -67.90260 12.08920 8.72856 -7.53655 10.13660 0.98799 4.59538 98.67670 3.02374 85.18710 22.33000 33.75070 90.24730 18.27300 12.18690 9.52811 20.55570 -8.37427 -12.77910 -27.48500 10.41130 68.30030 -4.34066 11.19270 0.62855 6.02279 -18.59080 -56.83920 -25.47620 11.86930 12.15000 39.68460 2.73475 -37.59320 -35.17220 -1.30651 1.89280 6.97803 -41.93810 13.02390 
